<?xml version="1.0" encoding="utf-8"?>
<!-- Svg Vector Icons : http://www.onlinewebfonts.com/icon -->
<!DOCTYPE svg PUBLIC "-//W3C//DTD SVG 1.1//EN" "http://www.w3.org/Graphics/SVG/1.1/DTD/svg11.dtd">
<svg version="1.1" xmlns="http://www.w3.org/2000/svg" xmlns:xlink="http://www.w3.org/1999/xlink" x="0px" y="0px" viewBox="0 0 1000 1000" enable-background="new 0 0 1000 1000" xml:space="preserve">
<metadata> Svg Vector Icons : http://www.onlinewebfonts.com/icon </metadata>
<g><g transform="translate(0.000000,511.000000) scale(0.100000,-0.100000)"><path d="M5774.2,4994c-839.1-63.8-1682.2-305-2411.7-689.6c-291-153.5-787.3-486.3-1034.4-693.6l-207.3-173.4l-77.7,43.9c-149.5,83.7-350.8,23.9-422.5-127.6c-43.9-93.7-39.9-201.3,10-291l41.9-73.8l-173.4-207.3c-330.9-392.6-695.6-988.6-894.9-1459C-49.9-216.1-67.8-1874.5,552.1-3425.1c131.6-330.9,492.3-1002.6,520.2-970.7c8,8,41.9,79.7,73.7,159.5c255.1,611.9,795.3,1112.2,1447,1341.4l157.5,55.8l63.8,175.4c127.6,356.8,312.9,647.8,578,912.9c265.1,265.1,556.1,448.5,914.9,578l177.4,63.8l63.8,177.4c99.7,279,255.1,558.1,408.6,733.5l65.8,73.8l2334-2332c1756-1756,2345.9-2334,2379.8-2334c59.8,0,163.4,103.7,163.4,163.4c0,33.9-578,623.9-2334,2379.9L5234,86.8l73.8,65.8c175.4,153.5,454.4,308.9,733.5,408.6l177.4,63.8l63.8,177.4c129.6,358.8,312.9,649.8,578,914.9s556.1,448.5,914.9,578l177.4,63.8l53.8,157.5c235.2,687.6,733.5,1199.9,1465,1500.8l57.8,23.9l-97.7,61.8C8369.3,4764.8,7033.8,5089.7,5774.2,4994z M6878.4,4667.1c643.8-75.7,1339.4-275.1,1841.7-526.2l147.5-73.8l-167.4-121.6c-400.6-291-741.5-721.5-922.8-1164c-37.9-91.7-79.7-175.4-95.7-185.4c-17.9-12-89.7,25.9-235.2,121.6c-1293.6,871-2696.8,1319.5-3824.9,1223.8c-155.5-14-297-29.9-316.9-35.9c-139.5-45.8,432.5,249.2,697.6,358.8c508.3,209.3,1166,372.7,1702.2,418.6C5941.6,4705,6645.2,4695,6878.4,4667.1z M2615,3072.6c651.8-135.5,1740-829.2,3005.7-1919.4l336.8-289l-107.6-43.9c-729.5-299-1261.7-831.2-1560.6-1560.6L4245.4-848l-289,336.8C2866.1,754.5,2172.5,1842.8,2037,2494.6c-49.8,245.2-31.9,382.7,65.8,490.3C2204.4,3098.5,2359.9,3124.4,2615,3072.6z M1189.9,1701.3c-147.5-1056.4,209.3-2425.7,950.7-3647.5c57.8-95.7,169.4-269.1,247.2-386.7c99.7-149.5,137.5-221.2,125.6-239.2c-10-15.9-93.7-57.8-185.4-95.7c-440.5-179.4-873-524.2-1164-922.8L1042.4-3758l-73.8,147.5c-255.1,508.3-452.4,1201.9-528.2,1861.6c-43.8,380.7-29.9,1144.1,29.9,1512.8c75.7,468.4,205.3,930.8,374.7,1343.4c69.8,169.4,346.8,725.5,354.8,715.5C1203.8,1818.9,1197.9,1765.1,1189.9,1701.3z"/></g></g>
</svg>